<svg viewBox="0 0 1240 640" xmlns="http://www.w3.org/2000/svg" font-family="'Hiragino Kaku Gothic ProN','Noto Sans JP',sans-serif">
  <defs>
    <linearGradient id="pageBg" x1="0" y1="0" x2="0" y2="1">
      <stop offset="0" stop-color="#f4f8f5"/>
      <stop offset="1" stop-color="#ffffff"/>
    </linearGradient>
    <linearGradient id="screenA" x1="0" y1="0" x2="0" y2="1">
      <stop offset="0" stop-color="#0e1830"/>
      <stop offset="1" stop-color="#111c36"/>
    </linearGradient>
    <linearGradient id="skyB" x1="0" y1="0" x2="0" y2="1">
      <stop offset="0" stop-color="#dff2ff"/>
      <stop offset="0.7" stop-color="#eefaf3"/>
      <stop offset="1" stop-color="#f7fdf9"/>
    </linearGradient>
    <linearGradient id="dawnC" x1="0" y1="0" x2="0" y2="1">
      <stop offset="0" stop-color="#f2f1ec"/>
      <stop offset="1" stop-color="#e7e9e2"/>
    </linearGradient>
    <pattern id="scanA" width="4" height="4" patternUnits="userSpaceOnUse">
      <rect y="3" width="4" height="1" fill="#000000" opacity="0.16"/>
    </pattern>
    <filter id="drop" x="-30%" y="-30%" width="160%" height="160%">
      <feDropShadow dx="0" dy="3" stdDeviation="5" flood-color="#233" flood-opacity="0.18"/>
    </filter>
    <filter id="cardSh" x="-20%" y="-20%" width="140%" height="140%">
      <feDropShadow dx="0" dy="3" stdDeviation="6" flood-color="#0d3a2b" flood-opacity="0.12"/>
    </filter>
    <!-- ドット葉 -->
    <g id="pleafS">
      <rect x="4" y="0" width="4" height="2" fill="#7bffc4"/>
      <rect x="2" y="2" width="6" height="2" fill="#3ecf8e"/>
      <rect x="0" y="4" width="6" height="2" fill="#3ecf8e"/>
      <rect x="0" y="6" width="3" height="2" fill="#1d9c66"/>
    </g>
    <!-- ソフト葉 -->
    <g id="softleaf">
      <path d="M0,0 Q4,-6 11,-4 Q10,2 3,3 Q1,2 0,0 Z" fill="#4aae8c"/>
    </g>
    <!-- 18.4 ドット数字 cell=5 -->
    <g id="scoreS">
      <rect x="5" y="0" width="5" height="5"/><rect x="0" y="5" width="5" height="5"/><rect x="5" y="5" width="5" height="5"/>
      <rect x="5" y="10" width="5" height="5"/><rect x="5" y="15" width="5" height="5"/>
      <rect x="0" y="20" width="5" height="5"/><rect x="5" y="20" width="5" height="5"/><rect x="10" y="20" width="5" height="5"/>
      <g transform="translate(21,0)">
        <rect x="0" y="0" width="5" height="5"/><rect x="5" y="0" width="5" height="5"/><rect x="10" y="0" width="5" height="5"/>
        <rect x="0" y="5" width="5" height="5"/><rect x="10" y="5" width="5" height="5"/>
        <rect x="0" y="10" width="5" height="5"/><rect x="5" y="10" width="5" height="5"/><rect x="10" y="10" width="5" height="5"/>
        <rect x="0" y="15" width="5" height="5"/><rect x="10" y="15" width="5" height="5"/>
        <rect x="0" y="20" width="5" height="5"/><rect x="5" y="20" width="5" height="5"/><rect x="10" y="20" width="5" height="5"/>
      </g>
      <rect x="41" y="20" width="5" height="5"/>
      <g transform="translate(51,0)">
        <rect x="0" y="0" width="5" height="5"/><rect x="10" y="0" width="5" height="5"/>
        <rect x="0" y="5" width="5" height="5"/><rect x="10" y="5" width="5" height="5"/>
        <rect x="0" y="10" width="5" height="5"/><rect x="5" y="10" width="5" height="5"/><rect x="10" y="10" width="5" height="5"/>
        <rect x="10" y="15" width="5" height="5"/><rect x="10" y="20" width="5" height="5"/>
      </g>
    </g>
  </defs>

  <rect width="1240" height="640" fill="url(#pageBg)"/>
  <text x="40" y="42" font-size="15" font-weight="700" fill="#374151">同じデータ（18.4cm・学び214歩・ネコまで12歩）を3つのスキンで</text>

  <!-- ============== A: 夜ドット・アーケード ============== -->
  <g transform="translate(20,64)">
    <text x="190" y="16" font-size="13" font-weight="700" fill="#196b4f" text-anchor="middle">A ─ 夜ドット・アーケード</text>
    <rect x="0" y="28" width="380" height="540" rx="20" fill="#0b1322" stroke="#1c2a49" stroke-width="1.5" filter="url(#cardSh)"/>
    <rect x="10" y="38" width="360" height="520" rx="14" fill="url(#screenA)"/>
    <!-- 星 -->
    <g fill="#31405f">
      <rect x="60" y="120" width="3" height="3"/><rect x="300" y="90" width="2" height="2"/><rect x="140" y="76" width="2" height="2"/>
      <rect x="330" y="200" width="2" height="2"/><rect x="50" y="230" width="2" height="2"/>
    </g>
    <!-- ヘッダ -->
    <text x="34" y="78" font-size="11" font-weight="700" fill="#3ecf8e" letter-spacing="0.2em">知の塔</text>
    <use href="#scoreS" transform="translate(35,89)" fill="#173a2c"/>
    <use href="#scoreS" transform="translate(33,87)" fill="#eaf2ff"/>
    <text x="104" y="112" font-size="10" fill="#8ea3c8">cm</text>
    <text x="34" y="130" font-size="9.5" fill="#8ea3c8">学び 214歩 ・ 今週 +9</text>
    <!-- ネコと線 -->
    <g transform="translate(268,150)">
      <text x="26" y="-6" font-size="9" fill="#8ea3c8" text-anchor="middle">ネコ 30cm</text>
      <g fill="#94a8cf">
        <rect x="4" y="0" width="4" height="4"/><rect x="4" y="4" width="8" height="4"/>
        <rect x="36" y="0" width="4" height="4"/><rect x="32" y="4" width="8" height="4"/>
        <rect x="8" y="8" width="32" height="12"/>
        <rect x="12" y="20" width="24" height="4"/>
        <rect x="8" y="24" width="32" height="16"/>
        <rect x="8" y="40" width="12" height="4"/><rect x="28" y="40" width="12" height="4"/>
        <rect x="40" y="36" width="4" height="8"/><rect x="44" y="28" width="4" height="10"/>
      </g>
      <g fill="#0e1830"><rect x="16" y="12" width="4" height="4"/><rect x="28" y="12" width="4" height="4"/></g>
    </g>
    <g fill="#2c3d61">
      <rect x="30" y="194" width="5" height="2"/><rect x="42" y="194" width="5" height="2"/><rect x="54" y="194" width="5" height="2"/>
      <rect x="66" y="194" width="5" height="2"/><rect x="78" y="194" width="5" height="2"/><rect x="90" y="194" width="5" height="2"/>
      <rect x="102" y="194" width="5" height="2"/><rect x="114" y="194" width="5" height="2"/><rect x="126" y="194" width="5" height="2"/>
      <rect x="138" y="194" width="5" height="2"/><rect x="150" y="194" width="5" height="2"/><rect x="162" y="194" width="5" height="2"/>
      <rect x="174" y="194" width="5" height="2"/><rect x="186" y="194" width="5" height="2"/><rect x="198" y="194" width="5" height="2"/>
      <rect x="210" y="194" width="5" height="2"/><rect x="222" y="194" width="5" height="2"/><rect x="234" y="194" width="5" height="2"/>
      <rect x="246" y="194" width="5" height="2"/><rect x="258" y="194" width="5" height="2"/><rect x="270" y="194" width="5" height="2"/>
      <rect x="282" y="194" width="5" height="2"/><rect x="294" y="194" width="5" height="2"/><rect x="306" y="194" width="5" height="2"/>
      <rect x="318" y="194" width="5" height="2"/><rect x="330" y="194" width="5" height="2"/>
    </g>
    <g transform="translate(272,204)">
      <rect width="54" height="17" rx="3" fill="#14301f" stroke="#3ecf8e" stroke-width="1"/>
      <text x="27" y="12" font-size="9" font-weight="700" fill="#3ecf8e" text-anchor="middle">あと12歩</text>
    </g>
    <!-- 落下ブロック -->
    <rect x="120" y="140" width="104" height="12" fill="#ffc24b"/>
    <rect x="120" y="140" width="104" height="3" fill="#ffe097"/>
    <rect x="120" y="149" width="104" height="3" fill="#c78e1e"/>
    <g transform="translate(230,134)">
      <rect width="28" height="16" rx="3" fill="#3ecf8e"/>
      <text x="14" y="12" font-size="9.5" font-weight="700" fill="#0b1322" text-anchor="middle">+1</text>
    </g>
    <!-- 塔 -->
    <g>
      <g transform="translate(128,218)"><rect width="104" height="12" fill="#16223a" stroke="#56688f" stroke-width="2"/></g>
      <g transform="translate(118,230)"><rect width="104" height="12" fill="#ffc24b"/><rect width="104" height="3" fill="#ffe097"/><rect y="9" width="104" height="3" fill="#c78e1e"/></g>
      <g transform="translate(125,242)"><rect width="104" height="12" fill="#3ecf8e"/><rect width="104" height="3" fill="#7bffc4"/><rect y="9" width="104" height="3" fill="#1d9c66"/><use href="#pleafS" transform="translate(106,2)"/></g>
      <g transform="translate(122,254)"><rect width="104" height="12" fill="#8a8265"/><rect width="104" height="3" fill="#a89f7e"/><rect y="9" width="104" height="3" fill="#6b6448"/></g>
      <g transform="translate(116,266)"><rect width="104" height="12" fill="#b394f5"/><rect width="104" height="3" fill="#d7c5ff"/><rect y="9" width="104" height="3" fill="#8a63d6"/></g>
      <g transform="translate(126,278)"><rect width="104" height="12" fill="#4cc3ff"/><rect width="104" height="3" fill="#a5e2ff"/><rect y="9" width="104" height="3" fill="#2795cf"/><use href="#pleafS" transform="translate(106,2)"/></g>
    </g>
    <!-- VOL -->
    <g transform="translate(112,290)">
      <rect width="128" height="22" fill="#223154"/><rect width="128" height="4" fill="#31456f"/>
      <text x="8" y="15" font-size="9.5" font-weight="700" fill="#9fb4e0" letter-spacing="0.12em">VOL.3</text>
      <use href="#pleafS" transform="translate(108,4)"/>
      <rect x="0" y="18" width="46" height="4" fill="#3ecf8e" opacity="0.75"/><rect x="46" y="18" width="30" height="4" fill="#ffc24b" opacity="0.75"/><rect x="76" y="18" width="28" height="4" fill="#b394f5" opacity="0.75"/><rect x="104" y="18" width="24" height="4" fill="#4cc3ff" opacity="0.75"/>
    </g>
    <g transform="translate(110,312)">
      <rect width="132" height="22" fill="#223154"/><rect width="132" height="4" fill="#31456f"/>
      <text x="8" y="15" font-size="9.5" font-weight="700" fill="#9fb4e0" letter-spacing="0.12em">VOL.2</text>
      <rect x="0" y="18" width="80" height="4" fill="#3ecf8e" opacity="0.75"/><rect x="80" y="18" width="24" height="4" fill="#4cc3ff" opacity="0.75"/><rect x="104" y="18" width="28" height="4" fill="#ffc24b" opacity="0.75"/>
    </g>
    <g transform="translate(114,334)">
      <rect width="124" height="22" fill="#223154"/><rect width="124" height="4" fill="#31456f"/>
      <text x="8" y="15" font-size="9.5" font-weight="700" fill="#9fb4e0" letter-spacing="0.12em">VOL.1</text>
      <rect x="0" y="18" width="98" height="4" fill="#3ecf8e" opacity="0.75"/><rect x="98" y="18" width="26" height="4" fill="#b394f5" opacity="0.75"/>
    </g>
    <rect x="40" y="358" width="280" height="3" fill="#2c3d61"/>
    <rect x="40" y="361" width="280" height="8" fill="#141f3a"/>
    <!-- スキャンライン -->
    <rect x="10" y="38" width="360" height="520" rx="14" fill="url(#scanA)"/>
    <!-- ログ -->
    <rect x="26" y="400" width="328" height="2" fill="#1c2a49"/>
    <text x="34" y="428" font-size="10" fill="#c9d6ee"><tspan fill="#3ecf8e" font-weight="700">▶ </tspan>きのう <tspan fill="#7bffc4" font-weight="700">敗血症の初期輸液</tspan> に葉が挟まった</text>
    <text x="34" y="450" font-size="10" fill="#8ea3c8"><tspan fill="#ffc24b" font-weight="700">▶ </tspan>くすんだブロック 3個 → <tspan fill="#3ecf8e">今日の回診へ</tspan></text>
    <text x="34" y="486" font-size="9" fill="#5b6f9a">ゲームの結界・スコア感・実装最軽量</text>
  </g>

  <!-- ============== B: ソフト物理・つみネコ系 ============== -->
  <g transform="translate(430,64)">
    <text x="190" y="16" font-size="13" font-weight="700" fill="#196b4f" text-anchor="middle">B ─ ソフト物理・つみネコ系</text>
    <rect x="0" y="28" width="380" height="540" rx="20" fill="url(#skyB)" stroke="#d8e8dd" filter="url(#cardSh)"/>
    <!-- 雲 -->
    <g fill="#ffffff" opacity="0.9">
      <ellipse cx="80" cy="100" rx="30" ry="12"/><ellipse cx="104" cy="94" rx="20" ry="10"/>
      <ellipse cx="60" cy="248" rx="26" ry="9"/><ellipse cx="78" cy="242" rx="16" ry="7"/>
    </g>
    <!-- ヘッダ -->
    <text x="34" y="78" font-size="12" font-weight="700" fill="#196b4f">知の塔</text>
    <text x="34" y="112" font-size="30" font-weight="700" fill="#1f2937">18.4<tspan font-size="14" fill="#6b7280"> cm</tspan></text>
    <text x="34" y="132" font-size="10" fill="#6b7280">学び 214歩 ・ 今週 +9</text>
    <!-- ネコ（まるい後ろ姿） -->
    <g transform="translate(296,158)">
      <text x="0" y="-38" font-size="9.5" fill="#8aa095" text-anchor="middle">ネコ 30cm</text>
      <path fill="#b9cbbf" d="M-22,36 C-22,10 -10,-4 0,-4 C10,-4 22,10 22,36 Z"/>
      <circle cx="0" cy="-8" r="13" fill="#b9cbbf"/>
      <path fill="#b9cbbf" d="M-10,-16 L-15,-30 L-3,-19 Z"/>
      <path fill="#b9cbbf" d="M10,-16 L15,-30 L3,-19 Z"/>
      <path fill="none" stroke="#b9cbbf" stroke-width="6" stroke-linecap="round" d="M20,32 C34,28 36,14 26,10"/>
    </g>
    <line x1="30" y1="196" x2="336" y2="196" stroke="#c4d8cb" stroke-width="1.4" stroke-dasharray="2 6" stroke-linecap="round"/>
    <g transform="translate(268,206)">
      <rect width="60" height="20" rx="10" fill="#ffffff" stroke="#bfe0cd" filter="url(#cardSh)"/>
      <text x="30" y="14" font-size="10" font-weight="700" fill="#196b4f" text-anchor="middle">あと12歩</text>
    </g>
    <!-- 落下ブロック（傾いて・弧線つき） -->
    <text x="118" y="140" font-size="9.5" fill="#8aa095">アナフィラキシー初期対応</text>
    <g transform="translate(118,160) rotate(-7)" filter="url(#drop)">
      <rect width="116" height="24" rx="10" fill="#ffc24b"/>
      <rect x="4" y="3" width="108" height="8" rx="4" fill="#ffe097" opacity="0.9"/>
    </g>
    <path d="M104,170 Q98,178 104,186" stroke="#c4d8cb" stroke-width="2" fill="none" stroke-linecap="round"/>
    <g transform="translate(240,158)">
      <rect width="32" height="20" rx="10" fill="#196b4f"/>
      <text x="16" y="14" font-size="10.5" font-weight="700" fill="#ffffff" text-anchor="middle">+1</text>
    </g>
    <!-- 塔（やわらかいブロックがぐらっと積まれている） -->
    <g>
      <g transform="translate(136,232) rotate(3.2)" filter="url(#drop)"><rect width="112" height="22" rx="10" fill="#e9f0f6" stroke="#c9d6df"/><rect x="4" y="3" width="104" height="7" rx="3.5" fill="#ffffff" opacity="0.85"/></g>
      <g transform="translate(120,252) rotate(-2.6)" filter="url(#drop)"><rect width="116" height="24" rx="10" fill="#3ecf8e"/><rect x="4" y="3" width="108" height="8" rx="4" fill="#7bffc4" opacity="0.85"/><g transform="translate(112,-4)"><use href="#softleaf"/></g></g>
      <g transform="translate(132,274) rotate(1.8)" filter="url(#drop)"><rect width="110" height="22" rx="10" fill="#cfc49a"/><rect x="4" y="3" width="102" height="7" rx="3.5" fill="#e0d7b4" opacity="0.9"/></g>
      <g transform="translate(116,295) rotate(-1.2)" filter="url(#drop)"><rect width="118" height="24" rx="10" fill="#b394f5"/><rect x="4" y="3" width="110" height="8" rx="4" fill="#d7c5ff" opacity="0.85"/></g>
      <g transform="translate(128,318) rotate(2.4)" filter="url(#drop)"><rect width="112" height="23" rx="10" fill="#4cc3ff"/><rect x="4" y="3" width="104" height="7" rx="3.5" fill="#a5e2ff" opacity="0.85"/><g transform="translate(108,-4)"><use href="#softleaf"/></g></g>
    </g>
    <!-- 巻（やわらかい台） -->
    <g transform="translate(112,342)" filter="url(#drop)">
      <rect width="136" height="26" rx="9" fill="#ffffff" stroke="#cfe3d6"/>
      <text x="12" y="17" font-size="10" font-weight="700" fill="#196b4f">第3巻</text>
      <rect x="52" y="8" width="26" height="10" rx="5" fill="#3ecf8e" opacity="0.8"/>
      <rect x="80" y="8" width="18" height="10" rx="5" fill="#ffc24b" opacity="0.8"/>
      <rect x="100" y="8" width="14" height="10" rx="5" fill="#b394f5" opacity="0.8"/>
      <g transform="translate(120,4)"><use href="#softleaf"/></g>
    </g>
    <g transform="translate(108,370)" filter="url(#drop)">
      <rect width="144" height="26" rx="9" fill="#ffffff" stroke="#cfe3d6"/>
      <text x="12" y="17" font-size="10" font-weight="700" fill="#196b4f">第2巻</text>
      <rect x="52" y="8" width="52" height="10" rx="5" fill="#3ecf8e" opacity="0.8"/>
      <rect x="106" y="8" width="16" height="10" rx="5" fill="#4cc3ff" opacity="0.8"/>
    </g>
    <!-- 丘の地面 -->
    <path d="M20,420 Q190,398 360,420 L360,436 Q190,414 20,436 Z" fill="#cde7d6"/>
    <ellipse cx="188" cy="412" rx="120" ry="10" fill="#0d3a2b" opacity="0.06"/>
    <!-- ログ -->
    <g transform="translate(36,462)"><use href="#softleaf"/></g>
    <text x="52" y="470" font-size="10" fill="#374151">きのう <tspan font-weight="700" fill="#196b4f">敗血症の初期輸液</tspan> に葉がつきました</text>
    <text x="34" y="492" font-size="10" fill="#6b7280">くすんだブロック 3個 → <tspan fill="#196b4f">今日の回診へ</tspan></text>
    <text x="34" y="526" font-size="9" fill="#8aa095">昼のトーン・愛嬌・落ちて弾む物理</text>
  </g>

  <!-- ============== C: 石積み・静謐 ============== -->
  <g transform="translate(840,64)">
    <text x="190" y="16" font-size="13" font-weight="700" fill="#196b4f" text-anchor="middle">C ─ 石積み・静謐</text>
    <rect x="0" y="28" width="380" height="540" rx="20" fill="url(#dawnC)" stroke="#dcded6" filter="url(#cardSh)"/>
    <!-- 霞 -->
    <ellipse cx="140" cy="208" rx="120" ry="8" fill="#ffffff" opacity="0.45"/>
    <ellipse cx="260" cy="230" rx="120" ry="7" fill="#ffffff" opacity="0.30"/>
    <!-- ヘッダ -->
    <text x="34" y="80" font-size="12" fill="#5a6b60" letter-spacing="0.3em">知の塔</text>
    <text x="34" y="116" font-size="30" fill="#3a443e" font-weight="300">18.4<tspan font-size="14" fill="#8a958d"> cm</tspan></text>
    <text x="34" y="136" font-size="10" fill="#8a958d">学び 214歩</text>
    <!-- 目盛り（線と文字だけ・生き物は描かない） -->
    <line x1="30" y1="192" x2="350" y2="192" stroke="#c8cec4" stroke-width="1" stroke-dasharray="1 7" stroke-linecap="round"/>
    <text x="350" y="182" font-size="9.5" fill="#8a958d" text-anchor="end">ネコ 30cm ・ あと12歩</text>
    <!-- 置かれようとしている石 -->
    <g transform="translate(158,148)" filter="url(#drop)">
      <ellipse cx="34" cy="12" rx="34" ry="12" fill="#a9b1a6"/>
      <ellipse cx="26" cy="9" rx="16" ry="5" fill="#bcc3b8" opacity="0.8"/>
    </g>
    <text x="238" y="156" font-size="9.5" fill="#8a958d">＋一歩</text>
    <!-- 石積み -->
    <g>
      <g transform="translate(146,236)" filter="url(#drop)"><ellipse cx="42" cy="14" rx="42" ry="14" fill="#9aa398"/><ellipse cx="32" cy="10" rx="20" ry="6" fill="#adb5aa" opacity="0.85"/><g transform="translate(76,2)"><use href="#softleaf"/></g></g>
      <g transform="translate(132,262)" filter="url(#drop)"><ellipse cx="52" cy="16" rx="52" ry="16" fill="#8b948a"/><ellipse cx="40" cy="11" rx="26" ry="7" fill="#9fa89d" opacity="0.85"/></g>
      <g transform="translate(140,292)" filter="url(#drop)"><ellipse cx="46" cy="15" rx="46" ry="15" fill="#a3aca0"/><ellipse cx="36" cy="10" rx="22" ry="6" fill="#b5bdb1" opacity="0.85"/><g transform="translate(84,3)"><use href="#softleaf"/></g></g>
      <g transform="translate(124,322)" filter="url(#drop)"><ellipse cx="58" cy="17" rx="58" ry="17" fill="#7e877d"/><ellipse cx="46" cy="12" rx="30" ry="8" fill="#929b90" opacity="0.85"/></g>
      <g transform="translate(134,354)" filter="url(#drop)"><ellipse cx="50" cy="16" rx="50" ry="16" fill="#959e93"/><ellipse cx="40" cy="11" rx="24" ry="7" fill="#a8b1a5" opacity="0.85"/></g>
      <!-- 巻＝広い台石 -->
      <g transform="translate(112,386)" filter="url(#drop)">
        <ellipse cx="72" cy="20" rx="72" ry="20" fill="#6f786e"/>
        <ellipse cx="58" cy="14" rx="38" ry="9" fill="#828b80" opacity="0.85"/>
        <text x="72" y="26" font-size="9" fill="#d7dcd2" text-anchor="middle" letter-spacing="0.2em">三十歩</text>
      </g>
    </g>
    <ellipse cx="184" cy="420" rx="110" ry="8" fill="#3a443e" opacity="0.08"/>
    <!-- ログ -->
    <text x="34" y="470" font-size="10" fill="#5a6b60">きのう、敗血症の初期輸液 に葉がつきました</text>
    <text x="34" y="492" font-size="10" fill="#8a958d">くすんだ石 3つ → 今日の回診へ</text>
    <text x="34" y="526" font-size="9" fill="#98a29a">釣り合いの緊張・大人の品格・最も静か</text>
  </g>
</svg>
